<svg width="200" height="200" viewBox="0 0 200 200" fill="none" xmlns="http://www.w3.org/2000/svg">
  <rect width="200" height="200" rx="20" fill="white"/>
  <rect x="0" y="0" width="200" height="10" fill="#009e60"/>
  <rect x="0" y="10" width="200" height="10" fill="#fcd116"/>
  <rect x="0" y="20" width="200" height="10" fill="#3a75c4"/>
  
  <circle cx="100" cy="100" r="60" fill="url(#logo_gradient)" />
  
  <path d="M60 85C60 76.163 67.163 69 76 69H124C132.837 69 140 76.163 140 85V85C140 93.837 132.837 101 124 101H76C67.163 101 60 108.163 60 117V117C60 125.837 67.163 133 76 133H124C132.837 133 140 125.837 140 117V117" stroke="white" stroke-width="8" stroke-linecap="round"/>
  
  <path d="M43.93 180L43.93 163.64L48.43 163.64Q50.11 163.64 51.42 164.33Q52.74 165.01 53.50 166.28Q54.27 167.54 54.27 169.23L54.27 169.23Q54.27 170.91 53.50 172.17Q52.74 173.43 51.41 174.12Q50.09 174.80 48.39 174.80L48.39 174.80L46.23 174.80L46.23 180L43.93 180ZM46.23 172.77L48.19 172.77Q49.67 172.77 50.48 172.01Q51.29 171.25 51.29 169.76L51.29 169.76Q51.29 168.25 50.48 167.49Q49.67 166.73 48.14 166.73L48.14 166.73L46.23 166.73L46.23 172.77ZM64.95 180L55.53 180L55.53 163.64L64.61 163.64L64.61 166.29L57.83 166.29L57.83 170.21L64.06 170.21L64.06 172.86L57.83 172.86L57.83 177.35L64.95 177.35L64.95 180ZM72.11 180L72.11 166.29L67.83 166.29L67.83 163.64L78.71 163.64L78.71 166.29L74.41 166.29L74.41 180L72.11 180ZM89.39 180L79.96 180L79.96 163.64L89.05 163.64L89.05 166.29L82.27 166.29L82.27 170.21L88.49 170.21L88.49 172.86L82.27 172.86L82.27 177.35L89.39 177.35L89.39 180ZM98.19 180L98.19 163.64L105.44 163.64Q107.39 163.64 108.78 164.09Q110.16 164.55 111.20 165.56Q112.25 166.57 112.78 168.04Q113.32 169.51 113.32 171.42L113.32 171.42Q113.32 173.39 112.69 174.80Q112.06 176.22 110.88 177.16Q109.71 178.11 108.08 178.55Q106.45 179 104.38 179L104.38 179L98.19 180ZM100.49 177.37L105.01 177.37Q106.40 177.37 107.41 177.09Q108.43 176.82 109.12 176.25Q109.81 175.67 110.16 174.79Q110.51 173.91 110.51 172.71L110.51 172.71Q110.51 171.39 110.25 170.47Q109.99 169.55 109.36 168.95Q108.73 168.36 107.75 168.05Q106.77 167.75 105.31 167.75L105.31 167.75L100.49 167.75L100.49 177.37ZM115.57 180L115.57 163.64L117.87 163.64L117.87 180L115.57 180ZM126.73 180L126.73 166.29L122.45 166.29L122.45 163.64L133.33 163.64L133.33 166.29L129.03 166.29L129.03 180L126.73 180ZM135.67 180L135.67 163.64L144.76 163.64L144.76 166.29L137.97 166.29L137.97 170.21L144.20 170.21L144.20 172.86L137.97 172.86L137.97 177.35L145.10 177.35L145.10 180L135.67 180Z" fill="#3a75c4"/>
  
  <defs>
    <linearGradient id="logo_gradient" x1="40" y1="40" x2="160" y2="160" gradientUnits="userSpaceOnUse">
      <stop stop-color="#3a75c4"/>
      <stop offset="1" stop-color="#009e60"/>
    </linearGradient>
  </defs>
</svg> 